HIERARCHY
ROOT Hips
{
	OFFSET 0.000000 0.000000 0.000000
	CHANNELS 6 Xposition Yposition Zposition Yrotation Xrotation Zrotation
	JOINT Chest
	{
		OFFSET 0.000000 -0.009281 11.569106
		CHANNELS 3 Yrotation Xrotation Zrotation
		JOINT Chest2
		{
			OFFSET -0.000000 0.016865 9.269641
			CHANNELS 3 Yrotation Xrotation Zrotation
			JOINT Chest3
			{
				OFFSET -0.000000 0.000001 8.374491
				CHANNELS 3 Yrotation Xrotation Zrotation
				JOINT Chest4
				{
					OFFSET -0.000000 0.000001 8.374493
					CHANNELS 3 Yrotation Xrotation Zrotation
					JOINT Neck
					{
						OFFSET -0.000000 0.000002 12.152554
						CHANNELS 3 Yrotation Xrotation Zrotation
						JOINT Head
						{
							OFFSET -0.000000 0.040101 7.802319
							CHANNELS 3 Yrotation Xrotation Zrotation
							End Site
							{
								OFFSET -0.000000 0.020947 14.853096
							}
						}
					}
					JOINT RightCollar
					{
						OFFSET 2.894404 0.000001 6.791374
						CHANNELS 3 Yrotation Xrotation Zrotation
						JOINT RightShoulder
						{
							OFFSET 13.574684 0.000001 0.000000
							CHANNELS 3 Yrotation Xrotation Zrotation
							JOINT RightElbow
							{
								OFFSET 23.923903 0.000002 0.000000
								CHANNELS 3 Yrotation Xrotation Zrotation
								JOINT RightWrist
								{
									OFFSET 19.846718 0.012767 0.000000
									CHANNELS 3 Yrotation Xrotation Zrotation
									End Site
									{
										OFFSET 14.973145 0.000001 0.000000
									}
								}
							}
						}
					}
					JOINT LeftCollar
					{
						OFFSET -2.894404 0.000001 6.791374
						CHANNELS 3 Yrotation Xrotation Zrotation
						JOINT LeftShoulder
						{
							OFFSET -13.574684 -0.000001 0.000000
							CHANNELS 3 Yrotation Xrotation Zrotation
							JOINT LeftElbow
							{
								OFFSET -23.923903 -0.000002 0.000000
								CHANNELS 3 Yrotation Xrotation Zrotation
								JOINT LeftWrist
								{
									OFFSET -19.846718 0.012763 0.000000
									CHANNELS 3 Yrotation Xrotation Zrotation
									End Site
									{
										OFFSET -14.973145 -0.000001 0.000000
									}
								}
							}
						}
					}
				}
			}
		}
	}
	JOINT RightHip
	{
		OFFSET 9.469263 0.004643 0.045487
		CHANNELS 3 Yrotation Xrotation Zrotation
		JOINT RightKnee
		{
			OFFSET 0.000000 0.002661 -40.478676
			CHANNELS 3 Yrotation Xrotation Zrotation
			JOINT RightAnkle
			{
				OFFSET 0.000000 0.049106 -35.224068
				CHANNELS 3 Yrotation Xrotation Zrotation
				JOINT RightToe
				{
					OFFSET -0.000001 12.539529 -6.151390
					CHANNELS 3 Yrotation Xrotation Zrotation
					End Site
					{
						OFFSET -0.000001 5.044994 -1.291870
					}
				}
			}
		}
	}
	JOINT LeftHip
	{
		OFFSET -9.469263 0.004641 0.045487
		CHANNELS 3 Yrotation Xrotation Zrotation
		JOINT LeftKnee
		{
			OFFSET 0.000000 0.002661 -40.478676
			CHANNELS 3 Yrotation Xrotation Zrotation
			JOINT LeftAnkle
			{
				OFFSET 0.000000 0.049106 -35.224068
				CHANNELS 3 Yrotation Xrotation Zrotation
				JOINT LeftToe
				{
					OFFSET -0.000001 12.539529 -6.151390
					CHANNELS 3 Yrotation Xrotation Zrotation
					End Site
					{
						OFFSET -0.000001 5.044994 -1.291870
					}
				}
			}
		}
	}
}
MOTION
Frames: 8
Frame Time: 0.016667
26.019850 2.536857 83.059845 -3.804190 1.115705 -115.504509 -1.558609 -4.631528 2.717183 -0.519709 -2.124107 1.164670 -0.519709 -2.124108 1.164669 -0.385689 -1.594080 0.871596 1.001513 -13.198878 -4.011115 0.263641 11.625537 -7.196029 9.392509 4.320917 -1.523486 42.509226 -14.845201 -13.689468 -24.738383 -60.825007 84.933894 -42.647018 39.324094 51.052003 -7.937352 4.629616 -6.497342 -40.687795 -10.400093 18.427132 -2.014292 -64.832244 -60.769443 30.613581 16.109005 -74.569048 -8.203149 3.710732 -5.347055 5.830334 -20.143013 -16.422637 -3.731746 8.795176 -7.102563 2.021577 0.095299 0.222741 -0.724717 0.420795 1.076561 2.459252 -7.206434 -4.694366 -0.714439 0.666818 9.686192 -0.201068 0.893557 -0.011382 
25.991129 2.861418 83.065063 -3.567943 1.051956 -115.212000 -1.534352 -4.570349 2.494061 -0.493519 -2.102655 1.137982 -0.493519 -2.102655 1.137979 -0.366182 -1.577918 0.851693 1.067187 -13.196918 -3.975348 0.402462 11.633866 -7.101531 9.438161 4.579901 -1.559061 42.335978 -14.901478 -13.771778 -24.853405 -60.813682 85.116499 -42.591352 39.220705 51.088821 -7.902549 4.603460 -6.522917 -40.799046 -10.237131 18.553651 -2.145473 -64.847291 -60.650229 30.653329 16.070028 -74.484272 -7.854530 3.944330 -4.801199 4.911349 -19.725907 -14.733544 -3.001014 8.759222 -6.141290 1.287399 -0.214852 0.204221 -0.180998 0.875888 -2.439660 2.898301 -6.579860 -7.159056 -1.293932 -0.059593 9.221426 -0.552700 0.738464 -0.148527 
25.774605 3.171912 83.071480 -3.144191 1.172554 -114.694285 -1.613778 -4.246867 2.002533 -0.490489 -2.072279 1.132827 -0.490489 -2.072280 1.132828 -0.363986 -1.555126 0.847861 1.176955 -13.216466 -3.960209 0.617524 11.603609 -7.027409 9.516783 5.007633 -1.638888 42.127616 -15.045307 -13.881256 -25.038152 -60.981937 85.448153 -42.539870 39.132988 51.109319 -7.888250 4.648391 -6.576486 -40.911211 -10.069416 18.733170 -2.180934 -64.829082 -60.538002 30.601655 15.996808 -74.542970 -7.094135 4.224303 -5.092267 2.871306 -18.920826 -10.319567 -1.442412 8.895270 -4.735102 0.044747 -0.743432 0.142420 0.071796 1.439456 -6.573763 3.399270 -5.903727 -8.859533 -1.833119 -0.623539 8.064294 -0.826373 0.677061 -0.152789 
25.424280 3.410633 83.060486 -2.814560 1.467852 -114.389877 -1.871734 -3.884583 1.726463 -0.520559 -2.044401 1.136509 -0.520559 -2.044400 1.136510 -0.386576 -1.534277 0.850548 1.311081 -13.258553 -3.967029 0.870842 11.531782 -6.984351 9.580707 5.213236 -1.663808 42.035627 -15.091354 -13.961462 -25.318367 -61.123090 85.786493 -42.560019 39.079440 51.084826 -7.917893 4.733827 -6.582632 -40.939973 -10.002341 18.845129 -2.078745 -64.824854 -60.562884 30.411902 15.997884 -74.675558 -6.822717 4.310669 -3.390168 1.498948 -18.072231 -5.353913 0.116677 9.229706 -4.991357 -0.931827 -1.097449 0.358715 0.242657 2.223335 -10.545342 3.706969 -5.305241 -10.012395 -2.346396 -1.400466 6.913269 -1.122002 0.807213 -0.395064 
24.981112 3.730428 83.035744 -2.745864 1.690488 -114.425510 -2.168095 -3.793434 1.825826 -0.580368 -2.022137 1.161975 -0.580368 -2.022137 1.161976 -0.431387 -1.517714 0.869469 1.464130 -13.270714 -4.009898 1.143864 11.515079 -7.002922 9.575567 5.163917 -1.751882 42.144637 -15.128104 -13.979460 -25.410653 -61.109341 85.867328 -42.573023 38.957603 51.040337 -7.932501 4.791122 -6.624514 -40.877313 -10.026587 18.811191 -1.872500 -64.782678 -60.746521 30.248770 16.103390 -74.938582 -6.788288 4.515955 1.155842 1.185613 -17.714350 -3.257059 1.984945 9.902170 -4.468348 -1.920572 -1.343222 0.602570 0.357804 2.809781 -13.504808 3.785464 -4.823819 -10.751950 -2.829632 -2.110126 5.513560 -1.190978 0.974222 -0.662580 
24.611544 4.097367 82.983810 -2.909526 1.758265 -114.734802 -2.401791 -3.982962 2.201293 -0.644755 -2.009508 1.205764 -0.644755 -2.009507 1.205764 -0.479553 -1.508411 0.902109 1.589335 -13.242993 -4.069837 1.355375 11.570522 -7.066325 9.533352 4.919104 -1.789304 42.305509 -15.089063 -13.931053 -25.236388 -61.036660 85.696478 -42.567552 38.816115 50.976386 -7.932102 4.861239 -6.619793 -40.807334 -10.206026 18.684495 -1.504673 -64.672725 -61.101663 30.177128 16.267590 -75.206202 -6.215380 4.677636 6.600367 0.836053 -17.980644 -2.989832 4.105095 11.064635 -2.291766 -2.899637 -1.614611 0.640932 0.482943 3.043816 -14.923542 3.718975 -4.395453 -11.026689 -3.557296 -2.662166 3.619173 -0.798841 1.080059 -0.857981 
24.405811 4.609980 82.912354 -3.052170 1.530542 -115.139204 -2.329476 -4.291678 2.672918 -0.697866 -2.004853 1.245836 -0.697867 -2.004854 1.245833 -0.519260 -1.505073 0.931993 1.662714 -13.179427 -4.121944 1.470279 11.690353 -7.136920 9.496417 4.677891 -1.741317 42.373291 -14.980271 -13.851119 -24.928051 -61.016914 85.482802 -42.556832 38.659919 50.895940 -7.869206 4.880463 -6.586361 -40.771301 -10.340999 18.528804 -1.150650 -64.590490 -61.453876 30.155541 16.415282 -75.315895 -4.927126 4.711303 11.117606 0.479455 -18.636892 -2.819923 5.607993 12.415797 0.350978 -3.574700 -1.905137 0.447767 0.744634 3.036462 -14.732940 3.576115 -3.994555 -10.937580 -4.711840 -2.862924 1.323012 0.188990 0.839066 -0.818221 
24.348801 5.156012 82.824699 -3.095205 1.121767 -115.430525 -2.039744 -4.588411 3.038805 -0.723329 -2.014235 1.268652 -0.723329 -2.014235 1.268649 -0.538261 -1.512188 0.949008 1.685476 -13.088773 -4.159103 1.494079 11.858567 -7.200601 9.467491 4.718299 -1.753073 42.335568 -15.019352 -13.809089 -24.612761 -61.037781 85.374079 -42.478299 38.452295 50.859901 -7.797247 4.959957 -6.628283 -40.731113 -10.385507 18.533276 -1.128626 -64.606937 -61.501134 30.199862 16.494564 -75.314584 -3.830674 4.848056 13.942721 0.540649 -19.342046 -2.640313 6.107927 12.863031 2.365347 -3.501879 -1.603179 0.213221 1.058192 2.908013 -13.406587 3.345898 -3.712514 -10.606696 -5.828212 -2.605615 -0.955078 1.262741 0.194916 -0.650405 
